<?xml version="1.0" encoding="UTF-8" standalone="no"?>
<!DOCTYPE svg PUBLIC "-//W3C//DTD SVG 1.1//EN"
 "http://www.w3.org/Graphics/SVG/1.1/DTD/svg11.dtd">
<!-- Generated by graphviz version 2.43.0 (0)
 -->
<!-- Pages: 1 -->
<svg width="461pt" height="231pt"
 viewBox="0.00 0.00 460.79 231.36" xmlns="http://www.w3.org/2000/svg" xmlns:xlink="http://www.w3.org/1999/xlink">
<g id="graph0" class="graph" transform="scale(1 1) rotate(0) translate(4 227.36)">
<polygon fill="white" stroke="transparent" points="-4,4 -4,-227.36 456.79,-227.36 456.79,4 -4,4"/>
<text text-anchor="middle" x="226.4" y="-7.8" font-family="Times,serif" font-size="14.00">State Machine</text>
<!-- B -->
<g id="node1" class="node">
<title>B</title>
<ellipse fill="white" stroke="black" cx="18" cy="-129.36" rx="18" ry="18"/>
<text text-anchor="start" x="12.15" y="-125.66" font-family="Times,serif" font-size="14.00">B</text>
</g>
<!-- B&#45;&gt;B -->
<g id="edge1" class="edge">
<title>B&#45;&gt;B</title>
<path fill="none" stroke="black" d="M9.02,-145.27C6.68,-155.51 9.67,-165.36 18,-165.36 23.47,-165.36 26.63,-161.12 27.5,-155.31"/>
<polygon fill="black" stroke="black" points="31,-155.08 26.98,-145.27 24.01,-155.44 31,-155.08"/>
<text text-anchor="middle" x="18" y="-169.16" font-family="Times,serif" font-size="14.00">1 / 1</text>
</g>
<!-- G -->
<g id="node2" class="node">
<title>G</title>
<ellipse fill="white" stroke="black" cx="122.2" cy="-70.36" rx="18.4" ry="18.4"/>
<text text-anchor="start" x="116.09" y="-66.66" font-family="Times,serif" font-size="14.00">G</text>
</g>
<!-- B&#45;&gt;G -->
<g id="edge2" class="edge">
<title>B&#45;&gt;G</title>
<path fill="none" stroke="black" d="M34.08,-120.65C50.68,-111.07 77.61,-95.52 97.14,-84.24"/>
<polygon fill="black" stroke="black" points="99.15,-87.13 106.06,-79.1 95.65,-81.07 99.15,-87.13"/>
<text text-anchor="middle" x="70" y="-112.16" font-family="Times,serif" font-size="14.00">0 / 0</text>
</g>
<!-- G&#45;&gt;G -->
<g id="edge10" class="edge">
<title>G&#45;&gt;G</title>
<path fill="none" stroke="black" d="M113.22,-86.36C110.88,-96.65 113.87,-106.56 122.2,-106.56 127.66,-106.56 130.83,-102.29 131.7,-96.45"/>
<polygon fill="black" stroke="black" points="135.19,-96.17 131.18,-86.36 128.2,-96.53 135.19,-96.17"/>
<text text-anchor="middle" x="122.2" y="-110.36" font-family="Times,serif" font-size="14.00">1 / 1</text>
</g>
<!-- E -->
<g id="node5" class="node">
<title>E</title>
<ellipse fill="white" stroke="black" cx="226.4" cy="-70.36" rx="18" ry="18"/>
<text text-anchor="start" x="220.55" y="-66.66" font-family="Times,serif" font-size="14.00">E</text>
</g>
<!-- G&#45;&gt;E -->
<g id="edge9" class="edge">
<title>G&#45;&gt;E</title>
<path fill="none" stroke="black" d="M140.53,-70.36C156.34,-70.36 179.94,-70.36 198.25,-70.36"/>
<polygon fill="black" stroke="black" points="198.32,-73.86 208.32,-70.36 198.32,-66.86 198.32,-73.86"/>
<text text-anchor="middle" x="174.4" y="-74.16" font-family="Times,serif" font-size="14.00">0 / 1</text>
</g>
<!-- C -->
<g id="node3" class="node">
<title>C</title>
<ellipse fill="white" stroke="black" cx="434.79" cy="-172.36" rx="18" ry="18"/>
<text text-anchor="start" x="428.95" y="-168.66" font-family="Times,serif" font-size="14.00">C</text>
</g>
<!-- C&#45;&gt;B -->
<g id="edge3" class="edge">
<title>C&#45;&gt;B</title>
<path fill="none" stroke="black" d="M417.76,-178.28C397.85,-185.09 362.69,-195.36 331.6,-195.36 121.2,-195.36 121.2,-195.36 121.2,-195.36 87.6,-195.36 56.29,-169.87 37.41,-150.57"/>
<polygon fill="black" stroke="black" points="39.73,-147.93 30.33,-143.03 34.62,-152.72 39.73,-147.93"/>
<text text-anchor="middle" x="226.4" y="-199.16" font-family="Times,serif" font-size="14.00">0 / 0</text>
</g>
<!-- C&#45;&gt;C -->
<g id="edge4" class="edge">
<title>C&#45;&gt;C</title>
<path fill="none" stroke="black" d="M425.81,-188.27C423.47,-198.51 426.47,-208.36 434.79,-208.36 440.26,-208.36 443.43,-204.12 444.3,-198.31"/>
<polygon fill="black" stroke="black" points="447.79,-198.08 443.77,-188.27 440.8,-198.44 447.79,-198.08"/>
<text text-anchor="middle" x="434.79" y="-212.16" font-family="Times,serif" font-size="14.00">1 / 1</text>
</g>
<!-- D -->
<g id="node4" class="node">
<title>D</title>
<ellipse fill="white" stroke="black" cx="330.6" cy="-149.36" rx="18.4" ry="18.4"/>
<text text-anchor="start" x="324.49" y="-145.66" font-family="Times,serif" font-size="14.00">D</text>
</g>
<!-- D&#45;&gt;B -->
<g id="edge5" class="edge">
<title>D&#45;&gt;B</title>
<path fill="none" stroke="black" d="M312.12,-148.23C260.59,-144.91 108.89,-135.15 46.39,-131.12"/>
<polygon fill="black" stroke="black" points="46.35,-127.61 36.14,-130.46 45.9,-134.6 46.35,-127.61"/>
<text text-anchor="middle" x="174.4" y="-143.16" font-family="Times,serif" font-size="14.00">1 / 1</text>
</g>
<!-- D&#45;&gt;C -->
<g id="edge6" class="edge">
<title>D&#45;&gt;C</title>
<path fill="none" stroke="black" d="M348.47,-153.16C364.37,-156.73 388.46,-162.16 406.99,-166.33"/>
<polygon fill="black" stroke="black" points="406.37,-169.77 416.89,-168.55 407.9,-162.94 406.37,-169.77"/>
<text text-anchor="middle" x="382.79" y="-167.16" font-family="Times,serif" font-size="14.00">0 / 0</text>
</g>
<!-- E&#45;&gt;B -->
<g id="edge7" class="edge">
<title>E&#45;&gt;B</title>
<path fill="none" stroke="black" d="M211.96,-59.06C189.21,-41.4 141.91,-10.98 104,-28.36 70.38,-43.76 45.37,-79.88 31.47,-104.48"/>
<polygon fill="black" stroke="black" points="28.39,-102.82 26.7,-113.27 34.54,-106.16 28.39,-102.82"/>
<text text-anchor="middle" x="122.2" y="-32.16" font-family="Times,serif" font-size="14.00">1 / 1</text>
</g>
<!-- E&#45;&gt;D -->
<g id="edge8" class="edge">
<title>E&#45;&gt;D</title>
<path fill="none" stroke="black" d="M241.4,-80.51C255.06,-90.48 276.35,-106.2 294.4,-120.36 298.91,-123.9 303.69,-127.76 308.23,-131.48"/>
<polygon fill="black" stroke="black" points="306.07,-134.24 316.01,-137.91 310.53,-128.84 306.07,-134.24"/>
<text text-anchor="middle" x="278.4" y="-124.16" font-family="Times,serif" font-size="14.00">0 / 0</text>
</g>
</g>
</svg>
